<svg width="12" height="12" viewBox="0 0 12 12" fill="#3B434E" xmlns="http://www.w3.org/2000/svg">
<path d="M8.7154 5.6098L4.26527 1.15975C4.16235 1.05675 4.02495 1 3.87845 1C3.73195 1 3.59455 1.05675 3.49162 1.15975L3.1639 1.48739C2.95065 1.70089 2.95065 2.04788 3.1639 2.26105L6.90078 5.99793L3.15975 9.73895C3.05683 9.84196 3 9.97928 3 10.1257C3 10.2723 3.05683 10.4096 3.15975 10.5127L3.48748 10.8402C3.59048 10.9433 3.7278 11 3.8743 11C4.0208 11 4.1582 10.9433 4.26113 10.8402L8.7154 6.38614C8.81857 6.2828 8.87524 6.14484 8.87491 5.99817C8.87524 5.85094 8.81857 5.71305 8.7154 5.6098Z" />
</svg>
